<svg xmlns="http://www.w3.org/2000/svg" xmlns:xlink="http://www.w3.org/1999/xlink" width="167" height="28" viewBox="0 0 167 28"><defs><path id="ywmka" d="M39.91 42.78c1.71 0 2.53.97 2.53 2.15 0 1.19-.82 2.18-2.53 2.18h-3.93v-4.33h3.93m-.24-7.12c1.6 0 2.5.81 2.5 2.02 0 1.2-.9 2.02-2.5 2.02h-3.7v-4.04h3.7m.62 14.5c3.45 0 5.92-1.78 5.92-5.06 0-2.34-1.5-3.45-2.66-3.94a4.05 4.05 0 0 0 2.39-3.63c0-3-2.2-4.93-5.97-4.93H32.2v17.56h8.1"/><path id="ywmkb" d="M50.07 50.16h3.77V32.6h-3.77z"/><path id="ywmkc" d="M65.68 35.66h-3.56v4.62h3.56c1.66 0 2.74-.96 2.74-2.31s-1.08-2.31-2.74-2.31zm2.93 14.5l-3.77-7h-2.72v7h-3.77V32.6h7.58c3.93 0 6.27 2.44 6.27 5.37 0 2.47-1.66 4-3.53 4.62l4.31 7.57z"/><path id="ywmkd" d="M85.56 36.74c-.65-.71-1.52-1.08-2.83-1.08h-2.85V47.1h2.85c1.3 0 2.18-.37 2.83-1.09.7-.79.81-2.04.81-4.7 0-2.67-.1-3.78-.81-4.57m2.63 11.74c-1.27 1.16-3.1 1.68-5.1 1.68H76.1V32.6h6.98c2 0 3.83.52 5.1 1.68 2.17 1.97 1.96 4.39 1.96 7.02 0 2.64.21 5.2-1.96 7.18"/><path id="ywmke" d="M119.16 35.66v4.31h7.63v3.06h-7.63v7.13h-3.77V32.6h12.73v3.06z"/><path id="ywmkf" d="M135.18 35.66v4.31h7.63v3.06h-7.63v7.13h-3.77V32.6h12.73v3.06z"/><path id="ywmkg" d="M147.43 50.16h3.77V32.6h-3.77z"/><path id="ywmkh" d="M162.17 50.3a7.5 7.5 0 0 1-5.21-1.92c-1.96-1.78-1.9-3.97-1.9-7 0-3.04-.06-5.23 1.9-7a7.5 7.5 0 0 1 5.21-1.93c3.61 0 6.44 1.87 7.12 5.55h-3.83c-.38-1.4-1.36-2.5-3.26-2.5-1.03 0-1.87.35-2.42.92-.73.74-.95 1.58-.95 4.96 0 3.37.22 4.21.95 4.95.55.57 1.39.91 2.42.91 1.9 0 2.88-1.08 3.26-2.49h3.83c-.68 3.68-3.53 5.55-7.12 5.55"/><path id="ywmki" d="M172.54 50.16V32.6h12.73v3.06h-8.96v4.12h7.63v3.05h-7.63v4.27h8.96v3.06z"/><path id="ywmkj" d="M187.27 27v.87h2.77v4.03l.2.07.35.12.4.16V27z"/><path id="ywmkk" d="M190.24 51l-.2.06v2.8h-3.25v.87H191v-4.02l-.4.15c-.12.05-.24.1-.36.13"/><path id="ywmkl" d="M106.75 36.48a3.23 3.23 0 0 0-2.38-.92 3.3 3.3 0 0 0-2.4.92c-.72.72-.9 1.52-.9 4.85 0 3.32.18 4.12.9 4.85a3.3 3.3 0 0 0 2.4.92c1.02 0 1.85-.36 2.38-.92.72-.73.93-1.53.93-4.85 0-3.33-.21-4.13-.93-4.85m2.75 11.73a7.24 7.24 0 0 1-5.13 1.9 7.31 7.31 0 0 1-5.15-1.9c-1.92-1.74-1.87-3.9-1.87-6.88s-.05-5.14 1.87-6.89a7.3 7.3 0 0 1 5.15-1.89c2.17 0 3.8.68 5.13 1.9 1.92 1.74 1.9 3.9 1.9 6.88s.02 5.14-1.9 6.88"/><path id="ywmkm" d="M24 27.27v27.2h5.84v-2.52h-3.06V29.79h2.58v-2.52z"/></defs><g><g transform="translate(-24 -27)"><g><use fill="#1b2733" xlink:href="#ywmka"/></g><g><use fill="#1b2733" xlink:href="#ywmkb"/></g><g><use fill="#1b2733" xlink:href="#ywmkc"/></g><g><use fill="#1b2733" xlink:href="#ywmkd"/></g><g><use fill="#1b2733" xlink:href="#ywmke"/></g><g><use fill="#1b2733" xlink:href="#ywmkf"/></g><g><use fill="#1b2733" xlink:href="#ywmkg"/></g><g><use fill="#1b2733" xlink:href="#ywmkh"/></g><g><use fill="#1b2733" xlink:href="#ywmki"/></g><g><use fill="#1b2733" xlink:href="#ywmkj"/></g><g><use fill="#1b2733" xlink:href="#ywmkk"/></g><g><use fill="#2fbfd0" xlink:href="#ywmkl"/></g><g><use fill="#0070e0" xlink:href="#ywmkm"/></g></g></g></svg>